solid PIR Holder
facet normal -0.0 1.0 -0.0
  outer loop
    vertex 0.0 40.0 63.0
    vertex 72.0 40.0 40.999999999999986
    vertex 0.0 40.0 40.999999999999986
  endloop
endfacet
facet normal -0.0 1.0 -0.0
  outer loop
    vertex 72.0 40.0 40.999999999999986
    vertex 0.0 40.0 63.0
    vertex 72.0 40.0 63.0
  endloop
endfacet
facet normal 0.0 0.0 -1.0
  outer loop
    vertex 5.999999999999999 26.500000000000004 59.99999999999999
    vertex 3.1724622928663847e-15 13.500000000000004 59.99999999999999
    vertex 3.1724622928663847e-15 26.500000000000004 59.99999999999999
  endloop
endfacet
facet normal 0.0 0.0 -1.0
  outer loop
    vertex 3.1724622928663847e-15 13.500000000000004 59.99999999999999
    vertex 5.999999999999999 26.500000000000004 59.99999999999999
    vertex 5.999999999999999 13.500000000000009 59.99999999999999
  endloop
endfacet
facet normal 0.0 0.0 -1.0
  outer loop
    vertex 5.999999999999999 13.500000000000009 59.99999999999999
    vertex 5.999999999999999 26.500000000000004 59.99999999999999
    vertex 6.0 34.0 59.99999999999999
  endloop
endfacet
facet normal 0.0 0.0 -1.0
  outer loop
    vertex 5.999999999999999 13.500000000000009 59.99999999999999
    vertex 6.0 34.0 59.99999999999999
    vertex 6.0 6.000000000000006 59.99999999999999
  endloop
endfacet
facet normal 0.0 0.0 -1.0
  outer loop
    vertex 6.0 6.000000000000006 59.99999999999999
    vertex 6.0 34.0 59.99999999999999
    vertex 51.00000000000001 34.0 59.99999999999999
  endloop
endfacet
facet normal 0.0 0.0 -1.0
  outer loop
    vertex 6.0 6.000000000000006 59.99999999999999
    vertex 51.00000000000001 34.0 59.99999999999999
    vertex 51.00000000000001 6.000000000000006 59.99999999999999
  endloop
endfacet
facet normal 1.0 0.0 0.0
  outer loop
    vertex 72.0 29.00000000000001 40.999999999999986
    vertex 72.0 0.0 63.0
    vertex 72.0 -5.921929613350582e-15 40.99999999999998
  endloop
endfacet
facet normal 1.0 0.0 0.0
  outer loop
    vertex 72.0 0.0 63.0
    vertex 72.0 29.00000000000001 40.999999999999986
    vertex 72.0 18.585786437626908 50.5857864376269
  endloop
endfacet
facet normal 1.0 0.0 0.0
  outer loop
    vertex 72.0 0.0 63.0
    vertex 72.0 18.585786437626908 50.5857864376269
    vertex 72.0 18.267949192431125 51.0
  endloop
endfacet
facet normal 1.0 0.0 0.0
  outer loop
    vertex 72.0 0.0 63.0
    vertex 72.0 18.267949192431125 51.0
    vertex 72.0 18.068148347421864 51.482361909794946
  endloop
endfacet
facet normal 1.0 0.0 0.0
  outer loop
    vertex 72.0 0.0 63.0
    vertex 72.0 18.068148347421864 51.482361909794946
    vertex 72.0 18.0 51.99999999999999
  endloop
endfacet
facet normal 1.0 0.0 0.0
  outer loop
    vertex 72.0 18.585786437626908 50.5857864376269
    vertex 72.0 29.00000000000001 40.999999999999986
    vertex 72.0 19.000000000000004 50.26794919243112
  endloop
endfacet
facet normal 1.0 0.0 0.0
  outer loop
    vertex 72.0 19.000000000000004 50.26794919243112
    vertex 72.0 29.00000000000001 40.999999999999986
    vertex 72.0 19.48236190979496 50.068148347421854
  endloop
endfacet
facet normal 1.0 0.0 0.0
  outer loop
    vertex 72.0 19.48236190979496 50.068148347421854
    vertex 72.0 29.00000000000001 40.999999999999986
    vertex 72.0 20.0 50.0
  endloop
endfacet
facet normal 1.0 0.0 0.0
  outer loop
    vertex 72.0 20.0 50.0
    vertex 72.0 29.00000000000001 40.999999999999986
    vertex 72.0 20.517638090205043 50.06814834742186
  endloop
endfacet
facet normal 1.0 0.0 0.0
  outer loop
    vertex 72.0 20.517638090205043 50.06814834742186
    vertex 72.0 29.00000000000001 40.999999999999986
    vertex 72.0 21.0 50.26794919243112
  endloop
endfacet
facet normal 1.0 0.0 0.0
  outer loop
    vertex 72.0 21.0 50.26794919243112
    vertex 72.0 29.00000000000001 40.999999999999986
    vertex 72.0 21.414213562373096 50.5857864376269
  endloop
endfacet
facet normal 1.0 0.0 0.0
  outer loop
    vertex 72.0 21.414213562373096 50.5857864376269
    vertex 72.0 29.00000000000001 40.999999999999986
    vertex 72.0 21.732050807568875 51.0
  endloop
endfacet
facet normal 1.0 0.0 0.0
  outer loop
    vertex 72.0 21.732050807568875 51.0
    vertex 72.0 29.00000000000001 40.999999999999986
    vertex 72.0 21.931851652578136 51.482361909794946
  endloop
endfacet
facet normal 1.0 0.0 0.0
  outer loop
    vertex 72.0 21.931851652578136 51.482361909794946
    vertex 72.0 29.00000000000001 40.999999999999986
    vertex 72.0 22.0 51.99999999999999
  endloop
endfacet
facet normal 1.0 0.0 0.0
  outer loop
    vertex 72.0 40.0 40.999999999999986
    vertex 72.0 34.000000000000014 49.99999999999998
    vertex 72.0 34.000000000000014 40.999999999999986
  endloop
endfacet
facet normal 1.0 0.0 0.0
  outer loop
    vertex 72.0 0.0 63.0
    vertex 72.0 19.0 53.732050807568875
    vertex 72.0 40.0 63.0
  endloop
endfacet
facet normal 1.0 0.0 0.0
  outer loop
    vertex 72.0 19.0 53.732050807568875
    vertex 72.0 0.0 63.0
    vertex 72.0 18.585786437626904 53.41421356237309
  endloop
endfacet
facet normal 1.0 0.0 0.0
  outer loop
    vertex 72.0 18.585786437626904 53.41421356237309
    vertex 72.0 0.0 63.0
    vertex 72.0 18.267949192431125 52.99999999999999
  endloop
endfacet
facet normal 1.0 0.0 0.0
  outer loop
    vertex 72.0 18.267949192431125 52.99999999999999
    vertex 72.0 0.0 63.0
    vertex 72.0 18.068148347421864 52.51763809020504
  endloop
endfacet
facet normal 1.0 0.0 0.0
  outer loop
    vertex 72.0 18.068148347421864 52.51763809020504
    vertex 72.0 0.0 63.0
    vertex 72.0 18.0 51.99999999999999
  endloop
endfacet
facet normal 1.0 0.0 0.0
  outer loop
    vertex 72.0 40.0 63.0
    vertex 72.0 19.0 53.732050807568875
    vertex 72.0 19.482361909794957 53.931851652578125
  endloop
endfacet
facet normal 1.0 0.0 0.0
  outer loop
    vertex 72.0 40.0 63.0
    vertex 72.0 19.482361909794957 53.931851652578125
    vertex 72.0 20.0 53.99999999999999
  endloop
endfacet
facet normal 1.0 0.0 0.0
  outer loop
    vertex 72.0 40.0 63.0
    vertex 72.0 20.0 53.99999999999999
    vertex 72.0 20.51763809020504 53.931851652578125
  endloop
endfacet
facet normal 1.0 0.0 0.0
  outer loop
    vertex 72.0 40.0 63.0
    vertex 72.0 20.51763809020504 53.931851652578125
    vertex 72.0 20.999999999999996 53.732050807568875
  endloop
endfacet
facet normal 1.0 0.0 0.0
  outer loop
    vertex 72.0 40.0 63.0
    vertex 72.0 20.999999999999996 53.732050807568875
    vertex 72.0 21.414213562373096 53.41421356237309
  endloop
endfacet
facet normal 1.0 0.0 0.0
  outer loop
    vertex 72.0 40.0 63.0
    vertex 72.0 21.414213562373096 53.41421356237309
    vertex 72.0 21.732050807568875 52.99999999999999
  endloop
endfacet
facet normal 1.0 0.0 0.0
  outer loop
    vertex 72.0 40.0 63.0
    vertex 72.0 21.732050807568875 52.99999999999999
    vertex 72.0 21.931851652578136 52.51763809020504
  endloop
endfacet
facet normal 1.0 0.0 0.0
  outer loop
    vertex 72.0 40.0 63.0
    vertex 72.0 21.931851652578136 52.51763809020504
    vertex 72.0 22.0 51.99999999999999
  endloop
endfacet
facet normal 1.0 0.0 0.0
  outer loop
    vertex 72.0 40.0 63.0
    vertex 72.0 22.0 51.99999999999999
    vertex 72.0 29.00000000000001 49.99999999999998
  endloop
endfacet
facet normal 1.0 0.0 0.0
  outer loop
    vertex 72.0 29.00000000000001 49.99999999999998
    vertex 72.0 22.0 51.99999999999999
    vertex 72.0 29.00000000000001 40.999999999999986
  endloop
endfacet
facet normal 1.0 0.0 0.0
  outer loop
    vertex 72.0 40.0 63.0
    vertex 72.0 29.00000000000001 49.99999999999998
    vertex 72.0 34.000000000000014 49.99999999999998
  endloop
endfacet
facet normal 1.0 0.0 0.0
  outer loop
    vertex 72.0 40.0 63.0
    vertex 72.0 34.000000000000014 49.99999999999998
    vertex 72.0 40.0 40.999999999999986
  endloop
endfacet
facet normal -0.0 -0.6087614290087153 -0.7933533402912393
  outer loop
    vertex 72.0 21.414213562373096 53.41421356237309
    vertex 51.00000000000011 20.999999999999996 53.732050807568875
    vertex 51.00000000000011 21.414213562373096 53.41421356237309
  endloop
endfacet
facet normal -0.0 -0.6087614290087153 -0.7933533402912393
  outer loop
    vertex 51.00000000000011 20.999999999999996 53.732050807568875
    vertex 72.0 21.414213562373096 53.41421356237309
    vertex 72.0 20.999999999999996 53.732050807568875
  endloop
endfacet
facet normal -1.0 0.0 0.0
  outer loop
    vertex 0.0 40.0 63.0
    vertex 3.1724622928663847e-15 13.500000000000004 59.99999999999999
    vertex 0.0 0.0 63.0
  endloop
endfacet
facet normal -1.0 0.0 0.0
  outer loop
    vertex 3.1724622928663847e-15 13.500000000000004 59.99999999999999
    vertex 0.0 40.0 63.0
    vertex 3.1724622928663847e-15 26.500000000000004 59.99999999999999
  endloop
endfacet
facet normal -1.0 0.0 0.0
  outer loop
    vertex 3.1724622928663847e-15 26.500000000000004 59.99999999999999
    vertex 0.0 40.0 63.0
    vertex 3.1724622928663847e-15 26.500000000000004 53.99999999999999
  endloop
endfacet
facet normal -1.0 0.0 0.0
  outer loop
    vertex 0.0 -5.921929613350582e-15 40.99999999999998
    vertex 3.1724622928663847e-15 13.500000000000004 53.99999999999999
    vertex 0.0 40.0 40.999999999999986
  endloop
endfacet
facet normal -1.0 0.0 0.0
  outer loop
    vertex 3.1724622928663847e-15 13.500000000000004 53.99999999999999
    vertex 0.0 -5.921929613350582e-15 40.99999999999998
    vertex 0.0 0.0 63.0
  endloop
endfacet
facet normal -1.0 0.0 0.0
  outer loop
    vertex 3.1724622928663847e-15 13.500000000000004 53.99999999999999
    vertex 0.0 0.0 63.0
    vertex 3.1724622928663847e-15 13.500000000000004 59.99999999999999
  endloop
endfacet
facet normal -1.0 0.0 0.0
  outer loop
    vertex 0.0 40.0 40.999999999999986
    vertex 3.1724622928663847e-15 13.500000000000004 53.99999999999999
    vertex 3.1724622928663847e-15 26.500000000000004 53.99999999999999
  endloop
endfacet
facet normal -1.0 0.0 0.0
  outer loop
    vertex 0.0 40.0 40.999999999999986
    vertex 3.1724622928663847e-15 26.500000000000004 53.99999999999999
    vertex 0.0 40.0 63.0
  endloop
endfacet
facet normal -6.220514299738001e-17 1.0 -3.524958103184873e-16
  outer loop
    vertex 3.0000000000000013 3.0000000000000084 44.99999999999997
    vertex 54.0 3.00000000000001 40.999999999999986
    vertex 3.0 3.0000000000000067 40.99999999999998
  endloop
endfacet
facet normal -6.220514299738001e-17 1.0 -3.524958103184873e-16
  outer loop
    vertex 54.0 3.00000000000001 40.999999999999986
    vertex 3.0000000000000013 3.0000000000000084 44.99999999999997
    vertex 54.0 3.0000000000000115 44.999999999999986
  endloop
endfacet
facet normal 2.362465804320213e-47 1.0 3.7599553100638616e-16
  outer loop
    vertex 6.0 6.000000000000006 59.99999999999999
    vertex 51.00000000000001 6.0000000000000115 44.999999999999986
    vertex 6.000000000000002 6.0000000000000115 44.999999999999986
  endloop
endfacet
facet normal 2.362465804320213e-47 1.0 3.7599553100638616e-16
  outer loop
    vertex 51.00000000000001 6.0000000000000115 44.999999999999986
    vertex 6.0 6.000000000000006 59.99999999999999
    vertex 51.00000000000001 6.000000000000006 59.99999999999999
  endloop
endfacet
facet normal -0.0 -0.38268343236508207 0.92387953251129
  outer loop
    vertex 72.0 20.517638090205043 50.06814834742186
    vertex 51.00000000000011 21.0 50.26794919243112
    vertex 51.00000000000011 20.517638090205043 50.06814834742186
  endloop
endfacet
facet normal -0.0 -0.38268343236508207 0.92387953251129
  outer loop
    vertex 51.00000000000011 21.0 50.26794919243112
    vertex 72.0 20.517638090205043 50.06814834742186
    vertex 72.0 21.0 50.26794919243112
  endloop
endfacet
facet normal 0.0 0.13052619222004153 0.9914448613738117
  outer loop
    vertex 72.0 19.48236190979496 50.068148347421854
    vertex 51.00000000000011 20.0 50.0
    vertex 51.00000000000011 19.48236190979496 50.068148347421854
  endloop
endfacet
facet normal 0.0 0.13052619222004153 0.9914448613738117
  outer loop
    vertex 51.00000000000011 20.0 50.0
    vertex 72.0 19.48236190979496 50.068148347421854
    vertex 72.0 20.0 50.0
  endloop
endfacet
facet normal 0.0 -1.0 2.6917861878866254e-16
  outer loop
    vertex 72.0 0.0 63.0
    vertex 0.0 -5.921929613350582e-15 40.99999999999998
    vertex 72.0 -5.921929613350582e-15 40.99999999999998
  endloop
endfacet
facet normal 0.0 -1.0 2.6917861878866254e-16
  outer loop
    vertex 0.0 -5.921929613350582e-15 40.99999999999998
    vertex 72.0 0.0 63.0
    vertex 0.0 0.0 63.0
  endloop
endfacet
facet normal -0.0 -0.9914448613738106 0.13052619222005077
  outer loop
    vertex 72.0 22.0 51.99999999999999
    vertex 51.00000000000011 21.931851652578136 51.482361909794946
    vertex 72.0 21.931851652578136 51.482361909794946
  endloop
endfacet
facet normal -0.0 -0.9914448613738106 0.13052619222005077
  outer loop
    vertex 51.00000000000011 21.931851652578136 51.482361909794946
    vertex 72.0 22.0 51.99999999999999
    vertex 51.00000000000011 22.0 51.99999999999999
  endloop
endfacet
facet normal -0.0 -0.9914448613738106 -0.13052619222005077
  outer loop
    vertex 72.0 21.931851652578136 52.51763809020504
    vertex 51.00000000000011 22.0 51.99999999999999
    vertex 72.0 22.0 51.99999999999999
  endloop
endfacet
facet normal -0.0 -0.9914448613738106 -0.13052619222005077
  outer loop
    vertex 51.00000000000011 22.0 51.99999999999999
    vertex 72.0 21.931851652578136 52.51763809020504
    vertex 51.00000000000011 21.931851652578136 52.51763809020504
  endloop
endfacet
facet normal -0.0 -0.9238795325112845 0.3826834323650951
  outer loop
    vertex 72.0 21.931851652578136 51.482361909794946
    vertex 51.00000000000011 21.732050807568875 51.0
    vertex 72.0 21.732050807568875 51.0
  endloop
endfacet
facet normal -0.0 -0.9238795325112845 0.3826834323650951
  outer loop
    vertex 51.00000000000011 21.732050807568875 51.0
    vertex 72.0 21.931851652578136 51.482361909794946
    vertex 51.00000000000011 21.931851652578136 51.482361909794946
  endloop
endfacet
facet normal -0.0 -0.7933533402912413 -0.6087614290087128
  outer loop
    vertex 72.0 21.414213562373096 53.41421356237309
    vertex 51.00000000000011 21.732050807568875 52.99999999999999
    vertex 72.0 21.732050807568875 52.99999999999999
  endloop
endfacet
facet normal -0.0 -0.7933533402912413 -0.6087614290087128
  outer loop
    vertex 51.00000000000011 21.732050807568875 52.99999999999999
    vertex 72.0 21.414213562373096 53.41421356237309
    vertex 51.00000000000011 21.414213562373096 53.41421356237309
  endloop
endfacet
facet normal 5.559619360119223e-18 3.6728333266292277e-16 -1.0
  outer loop
    vertex 0.0 40.0 40.999999999999986
    vertex 3.0 37.00000000000001 41.0
    vertex 0.0 -5.921929613350582e-15 40.99999999999998
  endloop
endfacet
facet normal 5.559619360119223e-18 3.6728333266292277e-16 -1.0
  outer loop
    vertex 3.0 37.00000000000001 41.0
    vertex 0.0 40.0 40.999999999999986
    vertex 72.0 40.0 40.999999999999986
  endloop
endfacet
facet normal 5.559619360119223e-18 3.6728333266292277e-16 -1.0
  outer loop
    vertex 3.0 37.00000000000001 41.0
    vertex 72.0 40.0 40.999999999999986
    vertex 54.0 37.00000000000001 41.0
  endloop
endfacet
facet normal 5.559619360119223e-18 3.6728333266292277e-16 -1.0
  outer loop
    vertex 54.0 37.00000000000001 41.0
    vertex 72.0 40.0 40.999999999999986
    vertex 54.0 34.000000000000014 40.99999999999999
  endloop
endfacet
facet normal 5.559619360119223e-18 3.6728333266292277e-16 -1.0
  outer loop
    vertex 54.0 34.000000000000014 40.99999999999999
    vertex 72.0 40.0 40.999999999999986
    vertex 72.0 34.000000000000014 40.999999999999986
  endloop
endfacet
facet normal 5.559619360119223e-18 3.6728333266292277e-16 -1.0
  outer loop
    vertex 72.0 29.00000000000001 40.999999999999986
    vertex 54.0 3.00000000000001 40.999999999999986
    vertex 54.0 29.00000000000001 40.99999999999999
  endloop
endfacet
facet normal 5.559619360119223e-18 3.6728333266292277e-16 -1.0
  outer loop
    vertex 0.0 -5.921929613350582e-15 40.99999999999998
    vertex 3.0 3.0000000000000067 40.99999999999998
    vertex 72.0 -5.921929613350582e-15 40.99999999999998
  endloop
endfacet
facet normal 5.559619360119223e-18 3.6728333266292277e-16 -1.0
  outer loop
    vertex 3.0 3.0000000000000067 40.99999999999998
    vertex 0.0 -5.921929613350582e-15 40.99999999999998
    vertex 3.0 37.00000000000001 41.0
  endloop
endfacet
facet normal 5.559619360119223e-18 3.6728333266292277e-16 -1.0
  outer loop
    vertex 72.0 -5.921929613350582e-15 40.99999999999998
    vertex 3.0 3.0000000000000067 40.99999999999998
    vertex 54.0 3.00000000000001 40.999999999999986
  endloop
endfacet
facet normal 5.559619360119223e-18 3.6728333266292277e-16 -1.0
  outer loop
    vertex 72.0 -5.921929613350582e-15 40.99999999999998
    vertex 54.0 3.00000000000001 40.999999999999986
    vertex 72.0 29.00000000000001 40.999999999999986
  endloop
endfacet
facet normal 1.0 0.0 0.0
  outer loop
    vertex 3.0 37.00000000000001 41.0
    vertex 3.0000000000000013 3.0000000000000084 44.99999999999997
    vertex 3.0 3.0000000000000067 40.99999999999998
  endloop
endfacet
facet normal 1.0 0.0 0.0
  outer loop
    vertex 3.0000000000000013 3.0000000000000084 44.99999999999997
    vertex 3.0 37.00000000000001 41.0
    vertex 3.0000000000000013 37.00000000000001 45.0
  endloop
endfacet
facet normal -0.0 -0.13052619222005143 0.9914448613738105
  outer loop
    vertex 72.0 20.0 50.0
    vertex 51.00000000000011 20.517638090205043 50.06814834742186
    vertex 51.00000000000011 20.0 50.0
  endloop
endfacet
facet normal -0.0 -0.13052619222005143 0.9914448613738105
  outer loop
    vertex 51.00000000000011 20.517638090205043 50.06814834742186
    vertex 72.0 20.0 50.0
    vertex 72.0 20.517638090205043 50.06814834742186
  endloop
endfacet
facet normal -0.0 -0.0 1.0
  outer loop
    vertex 72.0 0.0 63.0
    vertex 0.0 40.0 63.0
    vertex 0.0 0.0 63.0
  endloop
endfacet
facet normal -0.0 -0.0 1.0
  outer loop
    vertex 0.0 40.0 63.0
    vertex 72.0 0.0 63.0
    vertex 72.0 40.0 63.0
  endloop
endfacet
facet normal -0.0 -0.6087614290087248 0.7933533402912322
  outer loop
    vertex 72.0 21.0 50.26794919243112
    vertex 51.00000000000011 21.414213562373096 50.5857864376269
    vertex 51.00000000000011 21.0 50.26794919243112
  endloop
endfacet
facet normal -0.0 -0.6087614290087248 0.7933533402912322
  outer loop
    vertex 51.00000000000011 21.414213562373096 50.5857864376269
    vertex 72.0 21.0 50.26794919243112
    vertex 72.0 21.414213562373096 50.5857864376269
  endloop
endfacet
facet normal -1.0 0.0 0.0
  outer loop
    vertex 54.0 3.0000000000000115 44.999999999999986
    vertex 54.0 29.00000000000001 40.99999999999999
    vertex 54.0 3.00000000000001 40.999999999999986
  endloop
endfacet
facet normal -1.0 0.0 0.0
  outer loop
    vertex 54.0 29.00000000000001 40.99999999999999
    vertex 54.0 3.0000000000000115 44.999999999999986
    vertex 54.0 29.00000000000001 44.999999999999986
  endloop
endfacet
facet normal -0.0 -0.7933533402912374 0.608761429008718
  outer loop
    vertex 72.0 21.732050807568875 51.0
    vertex 51.00000000000011 21.414213562373096 50.5857864376269
    vertex 72.0 21.414213562373096 50.5857864376269
  endloop
endfacet
facet normal -0.0 -0.7933533402912374 0.608761429008718
  outer loop
    vertex 51.00000000000011 21.414213562373096 50.5857864376269
    vertex 72.0 21.732050807568875 51.0
    vertex 51.00000000000011 21.732050807568875 51.0
  endloop
endfacet
facet normal 0.0 -1.0 0.0
  outer loop
    vertex 54.0 37.00000000000001 45.0
    vertex 3.0 37.00000000000001 41.0
    vertex 54.0 37.00000000000001 41.0
  endloop
endfacet
facet normal 0.0 -1.0 0.0
  outer loop
    vertex 3.0 37.00000000000001 41.0
    vertex 54.0 37.00000000000001 45.0
    vertex 3.0000000000000013 37.00000000000001 45.0
  endloop
endfacet
facet normal -0.0 -0.9238795325112845 -0.3826834323650951
  outer loop
    vertex 72.0 21.732050807568875 52.99999999999999
    vertex 51.00000000000011 21.931851652578136 52.51763809020504
    vertex 72.0 21.931851652578136 52.51763809020504
  endloop
endfacet
facet normal -0.0 -0.9238795325112845 -0.3826834323650951
  outer loop
    vertex 51.00000000000011 21.931851652578136 52.51763809020504
    vertex 72.0 21.732050807568875 52.99999999999999
    vertex 51.00000000000011 21.732050807568875 52.99999999999999
  endloop
endfacet
facet normal 0.0 0.9238795325112845 0.3826834323650951
  outer loop
    vertex 51.00000000000011 18.068148347421864 51.482361909794946
    vertex 72.0 18.267949192431125 51.0
    vertex 51.00000000000011 18.267949192431125 51.0
  endloop
endfacet
facet normal 0.0 0.9238795325112845 0.3826834323650951
  outer loop
    vertex 72.0 18.267949192431125 51.0
    vertex 51.00000000000011 18.068148347421864 51.482361909794946
    vertex 72.0 18.068148347421864 51.482361909794946
  endloop
endfacet
facet normal 0.0 0.9914448613738106 0.13052619222005077
  outer loop
    vertex 51.00000000000011 18.0 51.99999999999999
    vertex 72.0 18.068148347421864 51.482361909794946
    vertex 51.00000000000011 18.068148347421864 51.482361909794946
  endloop
endfacet
facet normal 0.0 0.9914448613738106 0.13052619222005077
  outer loop
    vertex 72.0 18.068148347421864 51.482361909794946
    vertex 51.00000000000011 18.0 51.99999999999999
    vertex 72.0 18.0 51.99999999999999
  endloop
endfacet
facet normal -0.0 0.9238795325112845 -0.3826834323650951
  outer loop
    vertex 51.00000000000011 18.267949192431125 52.99999999999999
    vertex 72.0 18.068148347421864 52.51763809020504
    vertex 51.00000000000011 18.068148347421864 52.51763809020504
  endloop
endfacet
facet normal -0.0 0.9238795325112845 -0.3826834323650951
  outer loop
    vertex 72.0 18.068148347421864 52.51763809020504
    vertex 51.00000000000011 18.267949192431125 52.99999999999999
    vertex 72.0 18.267949192431125 52.99999999999999
  endloop
endfacet
facet normal -0.0 0.13052619222005143 -0.9914448613738105
  outer loop
    vertex 72.0 20.0 53.99999999999999
    vertex 51.00000000000011 19.482361909794957 53.931851652578125
    vertex 51.00000000000011 20.0 53.99999999999999
  endloop
endfacet
facet normal -0.0 0.13052619222005143 -0.9914448613738105
  outer loop
    vertex 51.00000000000011 19.482361909794957 53.931851652578125
    vertex 72.0 20.0 53.99999999999999
    vertex 72.0 19.482361909794957 53.931851652578125
  endloop
endfacet
facet normal 0.0 0.6087614290087248 0.7933533402912322
  outer loop
    vertex 72.0 18.585786437626908 50.5857864376269
    vertex 51.00000000000011 19.000000000000004 50.26794919243112
    vertex 51.00000000000011 18.585786437626908 50.5857864376269
  endloop
endfacet
facet normal 0.0 0.6087614290087248 0.7933533402912322
  outer loop
    vertex 51.00000000000011 19.000000000000004 50.26794919243112
    vertex 72.0 18.585786437626908 50.5857864376269
    vertex 72.0 19.000000000000004 50.26794919243112
  endloop
endfacet
facet normal -0.0 0.38268343236508207 -0.92387953251129
  outer loop
    vertex 72.0 19.482361909794957 53.931851652578125
    vertex 51.00000000000011 19.0 53.732050807568875
    vertex 51.00000000000011 19.482361909794957 53.931851652578125
  endloop
endfacet
facet normal -0.0 0.38268343236508207 -0.92387953251129
  outer loop
    vertex 51.00000000000011 19.0 53.732050807568875
    vertex 72.0 19.482361909794957 53.931851652578125
    vertex 72.0 19.0 53.732050807568875
  endloop
endfacet
facet normal -0.0 0.9914448613738106 -0.13052619222005077
  outer loop
    vertex 51.00000000000011 18.068148347421864 52.51763809020504
    vertex 72.0 18.0 51.99999999999999
    vertex 51.00000000000011 18.0 51.99999999999999
  endloop
endfacet
facet normal -0.0 0.9914448613738106 -0.13052619222005077
  outer loop
    vertex 72.0 18.0 51.99999999999999
    vertex 51.00000000000011 18.068148347421864 52.51763809020504
    vertex 72.0 18.068148347421864 52.51763809020504
  endloop
endfacet
facet normal 0.0 0.3826834323650913 0.9238795325112861
  outer loop
    vertex 72.0 19.000000000000004 50.26794919243112
    vertex 51.00000000000011 19.48236190979496 50.068148347421854
    vertex 51.00000000000011 19.000000000000004 50.26794919243112
  endloop
endfacet
facet normal 0.0 0.3826834323650913 0.9238795325112861
  outer loop
    vertex 51.00000000000011 19.48236190979496 50.068148347421854
    vertex 72.0 19.000000000000004 50.26794919243112
    vertex 72.0 19.48236190979496 50.068148347421854
  endloop
endfacet
facet normal -0.0 -0.13052619222005216 -0.9914448613738104
  outer loop
    vertex 72.0 20.51763809020504 53.931851652578125
    vertex 51.00000000000011 20.0 53.99999999999999
    vertex 51.00000000000011 20.51763809020504 53.931851652578125
  endloop
endfacet
facet normal -0.0 -0.13052619222005216 -0.9914448613738104
  outer loop
    vertex 51.00000000000011 20.0 53.99999999999999
    vertex 72.0 20.51763809020504 53.931851652578125
    vertex 72.0 20.0 53.99999999999999
  endloop
endfacet
facet normal 0.0 0.7933533402912347 0.6087614290087213
  outer loop
    vertex 51.00000000000011 18.267949192431125 51.0
    vertex 72.0 18.585786437626908 50.5857864376269
    vertex 51.00000000000011 18.585786437626908 50.5857864376269
  endloop
endfacet
facet normal 0.0 0.7933533402912347 0.6087614290087213
  outer loop
    vertex 72.0 18.585786437626908 50.5857864376269
    vertex 51.00000000000011 18.267949192431125 51.0
    vertex 72.0 18.267949192431125 51.0
  endloop
endfacet
facet normal -0.0 1.0 -0.0
  outer loop
    vertex 54.0 29.00000000000001 40.99999999999999
    vertex 72.0 29.00000000000001 49.99999999999998
    vertex 72.0 29.00000000000001 40.999999999999986
  endloop
endfacet
facet normal -0.0 1.0 -0.0
  outer loop
    vertex 72.0 29.00000000000001 49.99999999999998
    vertex 54.0 29.00000000000001 40.99999999999999
    vertex 54.0 29.00000000000001 44.999999999999986
  endloop
endfacet
facet normal -0.0 1.0 -0.0
  outer loop
    vertex 72.0 29.00000000000001 49.99999999999998
    vertex 54.0 29.00000000000001 44.999999999999986
    vertex 51.00000000000001 29.00000000000001 44.99999999999999
  endloop
endfacet
facet normal -0.0 1.0 -0.0
  outer loop
    vertex 72.0 29.00000000000001 49.99999999999998
    vertex 51.00000000000001 29.00000000000001 44.99999999999999
    vertex 51.00000000000001 29.00000000000001 49.99999999999999
  endloop
endfacet
facet normal -0.0 0.608761429008718 -0.7933533402912374
  outer loop
    vertex 72.0 19.0 53.732050807568875
    vertex 51.00000000000011 18.585786437626904 53.41421356237309
    vertex 51.00000000000011 19.0 53.732050807568875
  endloop
endfacet
facet normal -0.0 0.608761429008718 -0.7933533402912374
  outer loop
    vertex 51.00000000000011 18.585786437626904 53.41421356237309
    vertex 72.0 19.0 53.732050807568875
    vertex 72.0 18.585786437626904 53.41421356237309
  endloop
endfacet
facet normal -0.0 0.7933533402912413 -0.6087614290087128
  outer loop
    vertex 51.00000000000011 18.585786437626904 53.41421356237309
    vertex 72.0 18.267949192431125 52.99999999999999
    vertex 51.00000000000011 18.267949192431125 52.99999999999999
  endloop
endfacet
facet normal -0.0 0.7933533402912413 -0.6087614290087128
  outer loop
    vertex 72.0 18.267949192431125 52.99999999999999
    vertex 51.00000000000011 18.585786437626904 53.41421356237309
    vertex 72.0 18.585786437626904 53.41421356237309
  endloop
endfacet
facet normal -0.0 -0.38268343236508207 -0.92387953251129
  outer loop
    vertex 72.0 20.999999999999996 53.732050807568875
    vertex 51.00000000000011 20.51763809020504 53.931851652578125
    vertex 51.00000000000011 20.999999999999996 53.732050807568875
  endloop
endfacet
facet normal -0.0 -0.38268343236508207 -0.92387953251129
  outer loop
    vertex 51.00000000000011 20.51763809020504 53.931851652578125
    vertex 72.0 20.999999999999996 53.732050807568875
    vertex 72.0 20.51763809020504 53.931851652578125
  endloop
endfacet
facet normal -1.0 0.0 0.0
  outer loop
    vertex 51.00000000000001 6.000000000000006 59.99999999999999
    vertex 51.00000000000011 19.0 53.732050807568875
    vertex 51.00000000000001 6.0000000000000115 44.999999999999986
  endloop
endfacet
facet normal -1.0 0.0 0.0
  outer loop
    vertex 51.00000000000011 19.0 53.732050807568875
    vertex 51.00000000000001 6.000000000000006 59.99999999999999
    vertex 51.00000000000001 34.0 59.99999999999999
  endloop
endfacet
facet normal -1.0 0.0 0.0
  outer loop
    vertex 51.00000000000001 6.0000000000000115 44.999999999999986
    vertex 51.00000000000011 19.0 53.732050807568875
    vertex 51.00000000000011 18.585786437626904 53.41421356237309
  endloop
endfacet
facet normal -1.0 0.0 0.0
  outer loop
    vertex 51.00000000000001 6.0000000000000115 44.999999999999986
    vertex 51.00000000000011 18.585786437626904 53.41421356237309
    vertex 51.00000000000011 18.267949192431125 52.99999999999999
  endloop
endfacet
facet normal -1.0 0.0 0.0
  outer loop
    vertex 51.00000000000001 6.0000000000000115 44.999999999999986
    vertex 51.00000000000011 18.267949192431125 52.99999999999999
    vertex 51.00000000000011 18.068148347421864 52.51763809020504
  endloop
endfacet
facet normal -1.0 0.0 0.0
  outer loop
    vertex 51.00000000000001 6.0000000000000115 44.999999999999986
    vertex 51.00000000000011 18.068148347421864 52.51763809020504
    vertex 51.00000000000011 18.0 51.99999999999999
  endloop
endfacet
facet normal -1.0 0.0 0.0
  outer loop
    vertex 51.00000000000011 19.0 53.732050807568875
    vertex 51.00000000000001 34.0 59.99999999999999
    vertex 51.00000000000011 19.482361909794957 53.931851652578125
  endloop
endfacet
facet normal -1.0 0.0 0.0
  outer loop
    vertex 51.00000000000011 19.482361909794957 53.931851652578125
    vertex 51.00000000000001 34.0 59.99999999999999
    vertex 51.00000000000011 20.0 53.99999999999999
  endloop
endfacet
facet normal -1.0 0.0 0.0
  outer loop
    vertex 51.00000000000011 20.0 53.99999999999999
    vertex 51.00000000000001 34.0 59.99999999999999
    vertex 51.00000000000011 20.51763809020504 53.931851652578125
  endloop
endfacet
facet normal -1.0 0.0 0.0
  outer loop
    vertex 51.00000000000011 20.51763809020504 53.931851652578125
    vertex 51.00000000000001 34.0 59.99999999999999
    vertex 51.00000000000011 20.999999999999996 53.732050807568875
  endloop
endfacet
facet normal -1.0 0.0 0.0
  outer loop
    vertex 51.00000000000011 20.999999999999996 53.732050807568875
    vertex 51.00000000000001 34.0 59.99999999999999
    vertex 51.00000000000011 21.414213562373096 53.41421356237309
  endloop
endfacet
facet normal -1.0 0.0 0.0
  outer loop
    vertex 51.00000000000011 21.414213562373096 53.41421356237309
    vertex 51.00000000000001 34.0 59.99999999999999
    vertex 51.00000000000011 21.732050807568875 52.99999999999999
  endloop
endfacet
facet normal -1.0 0.0 0.0
  outer loop
    vertex 51.00000000000011 21.732050807568875 52.99999999999999
    vertex 51.00000000000001 34.0 59.99999999999999
    vertex 51.00000000000011 21.931851652578136 52.51763809020504
  endloop
endfacet
facet normal -1.0 0.0 0.0
  outer loop
    vertex 51.00000000000011 21.931851652578136 52.51763809020504
    vertex 51.00000000000001 34.0 59.99999999999999
    vertex 51.00000000000011 22.0 51.99999999999999
  endloop
endfacet
facet normal -1.0 0.0 0.0
  outer loop
    vertex 51.00000000000011 22.0 51.99999999999999
    vertex 51.00000000000001 34.0 59.99999999999999
    vertex 51.00000000000001 29.00000000000001 49.99999999999999
  endloop
endfacet
facet normal -1.0 0.0 0.0
  outer loop
    vertex 51.00000000000001 29.00000000000001 49.99999999999999
    vertex 51.00000000000001 34.0 59.99999999999999
    vertex 51.00000000000001 34.000000000000014 50.0
  endloop
endfacet
facet normal -1.0 0.0 0.0
  outer loop
    vertex 51.00000000000001 6.0000000000000115 44.999999999999986
    vertex 51.00000000000011 19.000000000000004 50.26794919243112
    vertex 51.00000000000001 29.00000000000001 44.99999999999999
  endloop
endfacet
facet normal -1.0 0.0 0.0
  outer loop
    vertex 51.00000000000011 19.000000000000004 50.26794919243112
    vertex 51.00000000000001 6.0000000000000115 44.999999999999986
    vertex 51.00000000000011 18.585786437626908 50.5857864376269
  endloop
endfacet
facet normal -1.0 0.0 0.0
  outer loop
    vertex 51.00000000000011 18.585786437626908 50.5857864376269
    vertex 51.00000000000001 6.0000000000000115 44.999999999999986
    vertex 51.00000000000011 18.267949192431125 51.0
  endloop
endfacet
facet normal -1.0 0.0 0.0
  outer loop
    vertex 51.00000000000011 18.267949192431125 51.0
    vertex 51.00000000000001 6.0000000000000115 44.999999999999986
    vertex 51.00000000000011 18.068148347421864 51.482361909794946
  endloop
endfacet
facet normal -1.0 0.0 0.0
  outer loop
    vertex 51.00000000000011 18.068148347421864 51.482361909794946
    vertex 51.00000000000001 6.0000000000000115 44.999999999999986
    vertex 51.00000000000011 18.0 51.99999999999999
  endloop
endfacet
facet normal -1.0 0.0 0.0
  outer loop
    vertex 51.00000000000001 29.00000000000001 44.99999999999999
    vertex 51.00000000000011 19.000000000000004 50.26794919243112
    vertex 51.00000000000011 19.48236190979496 50.068148347421854
  endloop
endfacet
facet normal -1.0 0.0 0.0
  outer loop
    vertex 51.00000000000001 29.00000000000001 44.99999999999999
    vertex 51.00000000000011 19.48236190979496 50.068148347421854
    vertex 51.00000000000011 20.0 50.0
  endloop
endfacet
facet normal -1.0 0.0 0.0
  outer loop
    vertex 51.00000000000001 29.00000000000001 44.99999999999999
    vertex 51.00000000000011 20.0 50.0
    vertex 51.00000000000011 20.517638090205043 50.06814834742186
  endloop
endfacet
facet normal -1.0 0.0 0.0
  outer loop
    vertex 51.00000000000001 29.00000000000001 44.99999999999999
    vertex 51.00000000000011 20.517638090205043 50.06814834742186
    vertex 51.00000000000011 21.0 50.26794919243112
  endloop
endfacet
facet normal -1.0 0.0 0.0
  outer loop
    vertex 51.00000000000001 29.00000000000001 44.99999999999999
    vertex 51.00000000000011 21.0 50.26794919243112
    vertex 51.00000000000011 21.414213562373096 50.5857864376269
  endloop
endfacet
facet normal -1.0 0.0 0.0
  outer loop
    vertex 51.00000000000001 29.00000000000001 44.99999999999999
    vertex 51.00000000000011 21.414213562373096 50.5857864376269
    vertex 51.00000000000011 21.732050807568875 51.0
  endloop
endfacet
facet normal -1.0 0.0 0.0
  outer loop
    vertex 51.00000000000001 29.00000000000001 44.99999999999999
    vertex 51.00000000000011 21.732050807568875 51.0
    vertex 51.00000000000011 21.931851652578136 51.482361909794946
  endloop
endfacet
facet normal -1.0 0.0 0.0
  outer loop
    vertex 51.00000000000001 29.00000000000001 44.99999999999999
    vertex 51.00000000000011 21.931851652578136 51.482361909794946
    vertex 51.00000000000011 22.0 51.99999999999999
  endloop
endfacet
facet normal -1.0 0.0 0.0
  outer loop
    vertex 51.00000000000001 29.00000000000001 44.99999999999999
    vertex 51.00000000000011 22.0 51.99999999999999
    vertex 51.00000000000001 29.00000000000001 49.99999999999999
  endloop
endfacet
facet normal 1.1749860343949574e-16 -1.2743927824829433e-32 1.0
  outer loop
    vertex 5.999999999999997 13.500000000000009 53.99999999999999
    vertex 3.1724622928663847e-15 26.500000000000004 53.99999999999999
    vertex 3.1724622928663847e-15 13.500000000000004 53.99999999999999
  endloop
endfacet
facet normal 1.1749860343949574e-16 -1.2743927824829433e-32 1.0
  outer loop
    vertex 3.1724622928663847e-15 26.500000000000004 53.99999999999999
    vertex 5.999999999999997 13.500000000000009 53.99999999999999
    vertex 5.999999999999999 26.500000000000004 53.99999999999999
  endloop
endfacet
facet normal 5.4230124664382676e-17 1.0 -1.2743927824829433e-32
  outer loop
    vertex 3.1724622928663847e-15 13.500000000000004 59.99999999999999
    vertex 5.999999999999997 13.500000000000009 53.99999999999999
    vertex 3.1724622928663847e-15 13.500000000000004 53.99999999999999
  endloop
endfacet
facet normal 5.4230124664382676e-17 1.0 -1.2743927824829433e-32
  outer loop
    vertex 5.999999999999997 13.500000000000009 53.99999999999999
    vertex 3.1724622928663847e-15 13.500000000000004 59.99999999999999
    vertex 5.999999999999999 13.500000000000009 59.99999999999999
  endloop
endfacet
facet normal -5.4230124664382676e-17 -1.0 0.0
  outer loop
    vertex 5.999999999999999 26.500000000000004 59.99999999999999
    vertex 3.1724622928663847e-15 26.500000000000004 53.99999999999999
    vertex 5.999999999999999 26.500000000000004 53.99999999999999
  endloop
endfacet
facet normal -5.4230124664382676e-17 -1.0 0.0
  outer loop
    vertex 3.1724622928663847e-15 26.500000000000004 53.99999999999999
    vertex 5.999999999999999 26.500000000000004 59.99999999999999
    vertex 3.1724622928663847e-15 26.500000000000004 59.99999999999999
  endloop
endfacet
facet normal 1.0 -9.616884646674385e-18 1.297745769331744e-16
  outer loop
    vertex 6.000000000000002 34.000000000000014 45.0
    vertex 5.999999999999997 13.500000000000009 53.99999999999999
    vertex 6.000000000000002 6.0000000000000115 44.999999999999986
  endloop
endfacet
facet normal 1.0 -9.616884646674385e-18 1.297745769331744e-16
  outer loop
    vertex 5.999999999999997 13.500000000000009 53.99999999999999
    vertex 6.000000000000002 34.000000000000014 45.0
    vertex 5.999999999999999 26.500000000000004 53.99999999999999
  endloop
endfacet
facet normal 1.0 -9.616884646674385e-18 1.297745769331744e-16
  outer loop
    vertex 5.999999999999999 26.500000000000004 53.99999999999999
    vertex 6.000000000000002 34.000000000000014 45.0
    vertex 5.999999999999999 26.500000000000004 59.99999999999999
  endloop
endfacet
facet normal 1.0 -9.616884646674385e-18 1.297745769331744e-16
  outer loop
    vertex 5.999999999999999 26.500000000000004 59.99999999999999
    vertex 6.000000000000002 34.000000000000014 45.0
    vertex 6.0 34.0 59.99999999999999
  endloop
endfacet
facet normal 1.0 -9.616884646674385e-18 1.297745769331744e-16
  outer loop
    vertex 6.000000000000002 6.0000000000000115 44.999999999999986
    vertex 5.999999999999999 13.500000000000009 59.99999999999999
    vertex 6.0 6.000000000000006 59.99999999999999
  endloop
endfacet
facet normal 1.0 -9.616884646674385e-18 1.297745769331744e-16
  outer loop
    vertex 5.999999999999999 13.500000000000009 59.99999999999999
    vertex 6.000000000000002 6.0000000000000115 44.999999999999986
    vertex 5.999999999999997 13.500000000000009 53.99999999999999
  endloop
endfacet
facet normal -1.1223111135973511e-17 3.7800859639056743e-16 -1.0
  outer loop
    vertex 3.0000000000000013 37.00000000000001 45.0
    vertex 6.000000000000002 34.000000000000014 45.0
    vertex 3.0000000000000013 3.0000000000000084 44.99999999999997
  endloop
endfacet
facet normal -1.1223111135973511e-17 3.7800859639056743e-16 -1.0
  outer loop
    vertex 6.000000000000002 34.000000000000014 45.0
    vertex 3.0000000000000013 37.00000000000001 45.0
    vertex 54.0 37.00000000000001 45.0
  endloop
endfacet
facet normal -1.1223111135973511e-17 3.7800859639056743e-16 -1.0
  outer loop
    vertex 6.000000000000002 34.000000000000014 45.0
    vertex 54.0 37.00000000000001 45.0
    vertex 54.0 34.000000000000014 44.999999999999986
  endloop
endfacet
facet normal -1.1223111135973511e-17 3.7800859639056743e-16 -1.0
  outer loop
    vertex 54.0 29.00000000000001 44.999999999999986
    vertex 51.00000000000001 6.0000000000000115 44.999999999999986
    vertex 51.00000000000001 29.00000000000001 44.99999999999999
  endloop
endfacet
facet normal -1.1223111135973511e-17 3.7800859639056743e-16 -1.0
  outer loop
    vertex 3.0000000000000013 3.0000000000000084 44.99999999999997
    vertex 6.000000000000002 6.0000000000000115 44.999999999999986
    vertex 54.0 3.0000000000000115 44.999999999999986
  endloop
endfacet
facet normal -1.1223111135973511e-17 3.7800859639056743e-16 -1.0
  outer loop
    vertex 6.000000000000002 6.0000000000000115 44.999999999999986
    vertex 3.0000000000000013 3.0000000000000084 44.99999999999997
    vertex 6.000000000000002 34.000000000000014 45.0
  endloop
endfacet
facet normal -1.1223111135973511e-17 3.7800859639056743e-16 -1.0
  outer loop
    vertex 54.0 3.0000000000000115 44.999999999999986
    vertex 6.000000000000002 6.0000000000000115 44.999999999999986
    vertex 51.00000000000001 6.0000000000000115 44.999999999999986
  endloop
endfacet
facet normal -1.1223111135973511e-17 3.7800859639056743e-16 -1.0
  outer loop
    vertex 54.0 3.0000000000000115 44.999999999999986
    vertex 51.00000000000001 6.0000000000000115 44.999999999999986
    vertex 54.0 29.00000000000001 44.999999999999986
  endloop
endfacet
facet normal 2.6729959735610506e-17 -1.0 -5.743178430639668e-16
  outer loop
    vertex 72.0 34.000000000000014 49.99999999999998
    vertex 54.0 34.000000000000014 40.99999999999999
    vertex 72.0 34.000000000000014 40.999999999999986
  endloop
endfacet
facet normal 2.6729959735610506e-17 -1.0 -5.743178430639668e-16
  outer loop
    vertex 54.0 34.000000000000014 40.99999999999999
    vertex 72.0 34.000000000000014 49.99999999999998
    vertex 54.0 34.000000000000014 44.999999999999986
  endloop
endfacet
facet normal 2.6729959735610506e-17 -1.0 -5.743178430639668e-16
  outer loop
    vertex 54.0 34.000000000000014 44.999999999999986
    vertex 72.0 34.000000000000014 49.99999999999998
    vertex 6.000000000000002 34.000000000000014 45.0
  endloop
endfacet
facet normal 2.6729959735610506e-17 -1.0 -5.743178430639668e-16
  outer loop
    vertex 6.000000000000002 34.000000000000014 45.0
    vertex 72.0 34.000000000000014 49.99999999999998
    vertex 51.00000000000001 34.000000000000014 50.0
  endloop
endfacet
facet normal 2.6729959735610506e-17 -1.0 -5.743178430639668e-16
  outer loop
    vertex 6.000000000000002 34.000000000000014 45.0
    vertex 51.00000000000001 34.000000000000014 50.0
    vertex 6.0 34.0 59.99999999999999
  endloop
endfacet
facet normal 2.6729959735610506e-17 -1.0 -5.743178430639668e-16
  outer loop
    vertex 6.0 34.0 59.99999999999999
    vertex 51.00000000000001 34.000000000000014 50.0
    vertex 51.00000000000001 34.0 59.99999999999999
  endloop
endfacet
facet normal -1.0 0.0 0.0
  outer loop
    vertex 54.0 37.00000000000001 45.0
    vertex 54.0 34.000000000000014 40.99999999999999
    vertex 54.0 34.000000000000014 44.999999999999986
  endloop
endfacet
facet normal -1.0 0.0 0.0
  outer loop
    vertex 54.0 34.000000000000014 40.99999999999999
    vertex 54.0 37.00000000000001 45.0
    vertex 54.0 37.00000000000001 41.0
  endloop
endfacet
facet normal -5.465051322767243e-16 3.759955310063862e-16 -1.0
  outer loop
    vertex 72.0 34.000000000000014 49.99999999999998
    vertex 51.00000000000001 29.00000000000001 49.99999999999999
    vertex 51.00000000000001 34.000000000000014 50.0
  endloop
endfacet
facet normal -5.465051322767243e-16 3.759955310063862e-16 -1.0
  outer loop
    vertex 51.00000000000001 29.00000000000001 49.99999999999999
    vertex 72.0 34.000000000000014 49.99999999999998
    vertex 72.0 29.00000000000001 49.99999999999998
  endloop
endfacet
endsolid PIR Holder
